<mxfile host="app.diagrams.net" modified="2024-02-07T15:45:45.135Z" agent="Mozilla/5.0 (Windows NT 10.0; Win64; x64) AppleWebKit/537.36 (KHTML, like Gecko) Chrome/121.0.0.0 Safari/537.36" version="23.1.1" etag="gpwKLRCl2s6ApOsol5X3" type="github">
  <diagram name="Pagina-1" id="M69K5dMTYQO8FTqFgFEn">
    <mxGraphModel>
      <root>
        <mxCell id="0" />
        <mxCell id="1" parent="0" />
      </root>
    </mxGraphModel>
  </diagram>
</mxfile>
